<svg width="16" height="16" viewBox="0 0 16 16" fill="none" xmlns="http://www.w3.org/2000/svg">
<path fill-rule="evenodd" clip-rule="evenodd" d="M12.6667 2.11458C12.5066 2.11458 12.3481 2.14611 12.2002 2.20737C12.0523 2.26863 11.9179 2.35842 11.8047 2.47161L2.92993 11.3464L2.28348 13.7167L4.65379 13.0703L13.5286 4.19546C13.6418 4.08227 13.7316 3.9479 13.7928 3.80001C13.8541 3.65212 13.8856 3.49361 13.8856 3.33353C13.8856 3.17346 13.8541 3.01495 13.7928 2.86706C13.7316 2.71917 13.6418 2.5848 13.5286 2.47161C13.4154 2.35842 13.281 2.26863 13.1331 2.20737C12.9853 2.14611 12.8267 2.11458 12.6667 2.11458ZM11.69 0.975531C11.9996 0.847267 12.3315 0.78125 12.6667 0.78125C13.0018 0.78125 13.3337 0.847267 13.6434 0.975531C13.953 1.1038 14.2344 1.2918 14.4714 1.5288C14.7084 1.7658 14.8964 2.04716 15.0247 2.35682C15.1529 2.66648 15.219 2.99837 15.219 3.33353C15.219 3.6687 15.1529 4.00059 15.0247 4.31025C14.8964 4.61991 14.7084 4.90127 14.4714 5.13827L5.47141 14.1383C5.38937 14.2203 5.28735 14.2795 5.17542 14.31L1.50875 15.31C1.27794 15.373 1.0311 15.3074 0.861934 15.1383C0.692767 14.9691 0.627215 14.7223 0.690163 14.4915L1.69016 10.8248C1.72069 10.7129 1.7799 10.6108 1.86193 10.5288L10.8619 1.5288C11.0989 1.2918 11.3803 1.1038 11.69 0.975531Z" fill="#828282"/>
</svg>
