<svg width="20" height="20" viewBox="0 0 20 20" fill="none" xmlns="http://www.w3.org/2000/svg">
<path d="M17.7778 1.25H2.22222C1.96437 1.25 1.71708 1.34704 1.53476 1.51977C1.35243 1.6925 1.25 1.92678 1.25 2.17106V4.55661C1.25 5.03832 1.45708 5.51174 1.81681 5.85254L7.08333 10.8419V17.8291C7.08352 17.986 7.12599 18.1403 7.20671 18.2773C7.28743 18.4143 7.40373 18.5296 7.5446 18.6121C7.68547 18.6947 7.84625 18.7418 8.01171 18.749C8.17718 18.7562 8.34185 18.7233 8.49014 18.6534L12.379 16.8113C12.7086 16.6547 12.9167 16.336 12.9167 15.987V10.8419L18.1832 5.85254C18.5429 5.51174 18.75 5.03832 18.75 4.55661V2.17106C18.75 1.92678 18.6476 1.6925 18.4652 1.51977C18.2829 1.34704 18.0356 1.25 17.7778 1.25ZM11.2571 9.80941C11.1666 9.8948 11.0949 9.99629 11.046 10.108C10.9971 10.2198 10.972 10.3396 10.9722 10.4606V15.4177L9.02778 16.3388V10.4606C9.02796 10.3396 9.00289 10.2198 8.954 10.108C8.90511 9.99629 8.83337 9.8948 8.74292 9.80941L3.19444 4.55661V3.09212H16.8065L16.8085 4.55016L11.2571 9.80941Z" fill="#4F4F4F"/>
</svg>
